<mxfile host="Electron" agent="Mozilla/5.0 (Windows NT 10.0; Win64; x64) AppleWebKit/537.36 (KHTML, like Gecko) draw.io/27.0.9 Chrome/134.0.6998.205 Electron/35.4.0 Safari/537.36" version="27.0.9">
  <diagram name="Page-1" id="-PzyyN9ZxZYbLcRGu2oZ">
    <mxGraphModel dx="1011" dy="501" grid="1" gridSize="10" guides="1" tooltips="1" connect="1" arrows="1" fold="1" page="1" pageScale="1" pageWidth="850" pageHeight="1100" math="0" shadow="0">
      <root>
        <mxCell id="0" />
        <mxCell id="1" parent="0" />
        <mxCell id="2qPS91hhKTg15ooCyAV6-50" value="Start" style="ellipse;aspect=fixed;strokeWidth=2;whiteSpace=wrap;" vertex="1" parent="1">
          <mxGeometry x="155" y="20" width="51" height="51" as="geometry" />
        </mxCell>
        <mxCell id="2qPS91hhKTg15ooCyAV6-51" value="Prepare Source&#xa;Git Clone / ZIP / Sparse" style="rounded=1;arcSize=20;strokeWidth=2" vertex="1" parent="1">
          <mxGeometry x="80" y="121" width="201" height="78" as="geometry" />
        </mxCell>
        <mxCell id="2qPS91hhKTg15ooCyAV6-52" value="Scan Engine&#xa;Tool Orchestration" style="rounded=1;arcSize=20;strokeWidth=2" vertex="1" parent="1">
          <mxGeometry x="100" y="249" width="162" height="78" as="geometry" />
        </mxCell>
        <mxCell id="2qPS91hhKTg15ooCyAV6-53" value="Run Scanners&#xa;Semgrep, Snyk, CodeQL, Trivy, etc." style="whiteSpace=wrap;strokeWidth=2;" vertex="1" parent="1">
          <mxGeometry x="51" y="377" width="260" height="102" as="geometry" />
        </mxCell>
        <mxCell id="2qPS91hhKTg15ooCyAV6-54" value="Parse Scan Reports" style="whiteSpace=wrap;strokeWidth=2;" vertex="1" parent="1">
          <mxGeometry x="84" y="529" width="194" height="54" as="geometry" />
        </mxCell>
        <mxCell id="2qPS91hhKTg15ooCyAV6-55" value="Read CVE Map" style="rounded=1;arcSize=20;strokeWidth=2" vertex="1" parent="1">
          <mxGeometry x="115" y="633" width="131" height="54" as="geometry" />
        </mxCell>
        <mxCell id="2qPS91hhKTg15ooCyAV6-56" value="Rule Match Found?" style="rhombus;strokeWidth=2;whiteSpace=wrap;" vertex="1" parent="1">
          <mxGeometry x="84" y="737" width="194" height="194" as="geometry" />
        </mxCell>
        <mxCell id="2qPS91hhKTg15ooCyAV6-57" value="Log and Skip" style="rounded=1;arcSize=20;strokeWidth=2" vertex="1" parent="1">
          <mxGeometry x="20" y="1372" width="120" height="54" as="geometry" />
        </mxCell>
        <mxCell id="2qPS91hhKTg15ooCyAV6-58" value="Check Autofix Eligibility" style="whiteSpace=wrap;strokeWidth=2;" vertex="1" parent="1">
          <mxGeometry x="144" y="1004" width="231" height="54" as="geometry" />
        </mxCell>
        <mxCell id="2qPS91hhKTg15ooCyAV6-59" value="Can Auto-Fix?" style="rhombus;strokeWidth=2;whiteSpace=wrap;" vertex="1" parent="1">
          <mxGeometry x="181" y="1131" width="157" height="157" as="geometry" />
        </mxCell>
        <mxCell id="2qPS91hhKTg15ooCyAV6-60" value="Autofix Engine&#xa;Semgrep Autofix Only" style="rounded=1;arcSize=20;strokeWidth=2" vertex="1" parent="1">
          <mxGeometry x="190" y="1360" width="184" height="78" as="geometry" />
        </mxCell>
        <mxCell id="2qPS91hhKTg15ooCyAV6-61" value="Generate Patch" style="whiteSpace=wrap;strokeWidth=2;" vertex="1" parent="1">
          <mxGeometry x="196" y="1488" width="171" height="54" as="geometry" />
        </mxCell>
        <mxCell id="2qPS91hhKTg15ooCyAV6-62" value="Create Branch &amp; Commit" style="rounded=1;arcSize=20;strokeWidth=2" vertex="1" parent="1">
          <mxGeometry x="177" y="1592" width="208" height="54" as="geometry" />
        </mxCell>
        <mxCell id="2qPS91hhKTg15ooCyAV6-63" value="Push PR to GitHub" style="strokeWidth=2;shape=process;whiteSpace=wrap;size=0.04;" vertex="1" parent="1">
          <mxGeometry x="201" y="1696" width="161" height="39" as="geometry" />
        </mxCell>
        <mxCell id="2qPS91hhKTg15ooCyAV6-64" value="End of SAST Remediation" style="ellipse;aspect=fixed;strokeWidth=2;whiteSpace=wrap;" vertex="1" parent="1">
          <mxGeometry x="181" y="1785" width="202" height="202" as="geometry" />
        </mxCell>
        <mxCell id="2qPS91hhKTg15ooCyAV6-65" value="Run DAST Scan on Staging URL" style="whiteSpace=wrap;strokeWidth=2;" vertex="1" parent="1">
          <mxGeometry x="152" y="2037" width="260" height="78" as="geometry" />
        </mxCell>
        <mxCell id="2qPS91hhKTg15ooCyAV6-66" value="Generate DAST Report - JSON or HTML" style="whiteSpace=wrap;strokeWidth=2;" vertex="1" parent="1">
          <mxGeometry x="152" y="2165" width="260" height="78" as="geometry" />
        </mxCell>
        <mxCell id="2qPS91hhKTg15ooCyAV6-67" value="Trigger CI Pipeline&#xa;Run Tests, Lint, Build" style="whiteSpace=wrap;strokeWidth=2;" vertex="1" parent="1">
          <mxGeometry x="176" y="2293" width="211" height="78" as="geometry" />
        </mxCell>
        <mxCell id="2qPS91hhKTg15ooCyAV6-68" value="CI Passed?" style="rhombus;strokeWidth=2;whiteSpace=wrap;" vertex="1" parent="1">
          <mxGeometry x="217" y="2421" width="130" height="130" as="geometry" />
        </mxCell>
        <mxCell id="2qPS91hhKTg15ooCyAV6-69" value="Trigger CD Pipeline&#xa;Deploy to Prod" style="whiteSpace=wrap;strokeWidth=2;" vertex="1" parent="1">
          <mxGeometry x="65" y="2623" width="195" height="78" as="geometry" />
        </mxCell>
        <mxCell id="2qPS91hhKTg15ooCyAV6-70" value="Log CI Failures&#xa;Notify Developer" style="whiteSpace=wrap;strokeWidth=2;" vertex="1" parent="1">
          <mxGeometry x="310" y="2623" width="181" height="78" as="geometry" />
        </mxCell>
        <mxCell id="2qPS91hhKTg15ooCyAV6-71" value="" style="curved=1;startArrow=none;endArrow=block;exitX=0.51;exitY=1;entryX=0.5;entryY=0;rounded=0;" edge="1" parent="1" source="2qPS91hhKTg15ooCyAV6-50" target="2qPS91hhKTg15ooCyAV6-51">
          <mxGeometry relative="1" as="geometry">
            <Array as="points" />
          </mxGeometry>
        </mxCell>
        <mxCell id="2qPS91hhKTg15ooCyAV6-72" value="" style="curved=1;startArrow=none;endArrow=block;exitX=0.5;exitY=1;entryX=0.5;entryY=0;rounded=0;" edge="1" parent="1" source="2qPS91hhKTg15ooCyAV6-51" target="2qPS91hhKTg15ooCyAV6-52">
          <mxGeometry relative="1" as="geometry">
            <Array as="points" />
          </mxGeometry>
        </mxCell>
        <mxCell id="2qPS91hhKTg15ooCyAV6-73" value="" style="curved=1;startArrow=none;endArrow=block;exitX=0.5;exitY=1;entryX=0.5;entryY=0;rounded=0;" edge="1" parent="1" source="2qPS91hhKTg15ooCyAV6-52" target="2qPS91hhKTg15ooCyAV6-53">
          <mxGeometry relative="1" as="geometry">
            <Array as="points" />
          </mxGeometry>
        </mxCell>
        <mxCell id="2qPS91hhKTg15ooCyAV6-74" value="" style="curved=1;startArrow=none;endArrow=block;exitX=0.5;exitY=1;entryX=0.5;entryY=0;rounded=0;" edge="1" parent="1" source="2qPS91hhKTg15ooCyAV6-53" target="2qPS91hhKTg15ooCyAV6-54">
          <mxGeometry relative="1" as="geometry">
            <Array as="points" />
          </mxGeometry>
        </mxCell>
        <mxCell id="2qPS91hhKTg15ooCyAV6-75" value="" style="curved=1;startArrow=none;endArrow=block;exitX=0.5;exitY=1;entryX=0.5;entryY=0;rounded=0;" edge="1" parent="1" source="2qPS91hhKTg15ooCyAV6-54" target="2qPS91hhKTg15ooCyAV6-55">
          <mxGeometry relative="1" as="geometry">
            <Array as="points" />
          </mxGeometry>
        </mxCell>
        <mxCell id="2qPS91hhKTg15ooCyAV6-76" value="" style="curved=1;startArrow=none;endArrow=block;exitX=0.5;exitY=1;entryX=0.5;entryY=0;rounded=0;" edge="1" parent="1" source="2qPS91hhKTg15ooCyAV6-55" target="2qPS91hhKTg15ooCyAV6-56">
          <mxGeometry relative="1" as="geometry">
            <Array as="points" />
          </mxGeometry>
        </mxCell>
        <mxCell id="2qPS91hhKTg15ooCyAV6-77" value="No" style="curved=1;startArrow=none;endArrow=block;exitX=0.06;exitY=1;entryX=0.45;entryY=0;rounded=0;" edge="1" parent="1" source="2qPS91hhKTg15ooCyAV6-56" target="2qPS91hhKTg15ooCyAV6-57">
          <mxGeometry relative="1" as="geometry">
            <Array as="points">
              <mxPoint x="64" y="968" />
              <mxPoint x="64" y="1323" />
            </Array>
          </mxGeometry>
        </mxCell>
        <mxCell id="2qPS91hhKTg15ooCyAV6-78" value="Yes" style="curved=1;startArrow=none;endArrow=block;exitX=0.79;exitY=1;entryX=0.5;entryY=0;rounded=0;" edge="1" parent="1" source="2qPS91hhKTg15ooCyAV6-56" target="2qPS91hhKTg15ooCyAV6-58">
          <mxGeometry relative="1" as="geometry">
            <Array as="points">
              <mxPoint x="259" y="968" />
            </Array>
          </mxGeometry>
        </mxCell>
        <mxCell id="2qPS91hhKTg15ooCyAV6-79" value="" style="curved=1;startArrow=none;endArrow=block;exitX=0.5;exitY=1;entryX=0.5;entryY=0;rounded=0;" edge="1" parent="1" source="2qPS91hhKTg15ooCyAV6-58" target="2qPS91hhKTg15ooCyAV6-59">
          <mxGeometry relative="1" as="geometry">
            <Array as="points" />
          </mxGeometry>
        </mxCell>
        <mxCell id="2qPS91hhKTg15ooCyAV6-80" value="No" style="curved=1;startArrow=none;endArrow=block;exitX=0.06;exitY=0.99;entryX=0.73;entryY=0;rounded=0;" edge="1" parent="1" source="2qPS91hhKTg15ooCyAV6-59" target="2qPS91hhKTg15ooCyAV6-57">
          <mxGeometry relative="1" as="geometry">
            <Array as="points">
              <mxPoint x="158" y="1323" />
            </Array>
          </mxGeometry>
        </mxCell>
        <mxCell id="2qPS91hhKTg15ooCyAV6-81" value="Yes" style="curved=1;startArrow=none;endArrow=block;exitX=0.6;exitY=0.99;entryX=0.5;entryY=0;rounded=0;" edge="1" parent="1" source="2qPS91hhKTg15ooCyAV6-59" target="2qPS91hhKTg15ooCyAV6-60">
          <mxGeometry relative="1" as="geometry">
            <Array as="points">
              <mxPoint x="282" y="1323" />
            </Array>
          </mxGeometry>
        </mxCell>
        <mxCell id="2qPS91hhKTg15ooCyAV6-82" value="" style="curved=1;startArrow=none;endArrow=block;exitX=0.5;exitY=1;entryX=0.5;entryY=0;rounded=0;" edge="1" parent="1" source="2qPS91hhKTg15ooCyAV6-60" target="2qPS91hhKTg15ooCyAV6-61">
          <mxGeometry relative="1" as="geometry">
            <Array as="points" />
          </mxGeometry>
        </mxCell>
        <mxCell id="2qPS91hhKTg15ooCyAV6-83" value="" style="curved=1;startArrow=none;endArrow=block;exitX=0.5;exitY=1;entryX=0.5;entryY=0;rounded=0;" edge="1" parent="1" source="2qPS91hhKTg15ooCyAV6-61" target="2qPS91hhKTg15ooCyAV6-62">
          <mxGeometry relative="1" as="geometry">
            <Array as="points" />
          </mxGeometry>
        </mxCell>
        <mxCell id="2qPS91hhKTg15ooCyAV6-84" value="" style="curved=1;startArrow=none;endArrow=block;exitX=0.5;exitY=1;entryX=0.5;entryY=0;rounded=0;" edge="1" parent="1" source="2qPS91hhKTg15ooCyAV6-62" target="2qPS91hhKTg15ooCyAV6-63">
          <mxGeometry relative="1" as="geometry">
            <Array as="points" />
          </mxGeometry>
        </mxCell>
        <mxCell id="2qPS91hhKTg15ooCyAV6-85" value="" style="curved=1;startArrow=none;endArrow=block;exitX=0.5;exitY=1;entryX=0.5;entryY=0;rounded=0;" edge="1" parent="1" source="2qPS91hhKTg15ooCyAV6-63" target="2qPS91hhKTg15ooCyAV6-64">
          <mxGeometry relative="1" as="geometry">
            <Array as="points" />
          </mxGeometry>
        </mxCell>
        <mxCell id="2qPS91hhKTg15ooCyAV6-86" value="" style="curved=1;startArrow=none;endArrow=block;exitX=0.5;exitY=1;entryX=0.5;entryY=0;rounded=0;" edge="1" parent="1" source="2qPS91hhKTg15ooCyAV6-64" target="2qPS91hhKTg15ooCyAV6-65">
          <mxGeometry relative="1" as="geometry">
            <Array as="points" />
          </mxGeometry>
        </mxCell>
        <mxCell id="2qPS91hhKTg15ooCyAV6-87" value="" style="curved=1;startArrow=none;endArrow=block;exitX=0.5;exitY=1;entryX=0.5;entryY=0;rounded=0;" edge="1" parent="1" source="2qPS91hhKTg15ooCyAV6-65" target="2qPS91hhKTg15ooCyAV6-66">
          <mxGeometry relative="1" as="geometry">
            <Array as="points" />
          </mxGeometry>
        </mxCell>
        <mxCell id="2qPS91hhKTg15ooCyAV6-88" value="" style="curved=1;startArrow=none;endArrow=block;exitX=0.5;exitY=1;entryX=0.5;entryY=0;rounded=0;" edge="1" parent="1" source="2qPS91hhKTg15ooCyAV6-66" target="2qPS91hhKTg15ooCyAV6-67">
          <mxGeometry relative="1" as="geometry">
            <Array as="points" />
          </mxGeometry>
        </mxCell>
        <mxCell id="2qPS91hhKTg15ooCyAV6-89" value="" style="curved=1;startArrow=none;endArrow=block;exitX=0.5;exitY=1;entryX=0.5;entryY=0;rounded=0;" edge="1" parent="1" source="2qPS91hhKTg15ooCyAV6-67" target="2qPS91hhKTg15ooCyAV6-68">
          <mxGeometry relative="1" as="geometry">
            <Array as="points" />
          </mxGeometry>
        </mxCell>
        <mxCell id="2qPS91hhKTg15ooCyAV6-90" value="Yes" style="curved=1;startArrow=none;endArrow=block;exitX=0;exitY=0.92;entryX=0.5;entryY=0;rounded=0;" edge="1" parent="1" source="2qPS91hhKTg15ooCyAV6-68" target="2qPS91hhKTg15ooCyAV6-69">
          <mxGeometry relative="1" as="geometry">
            <Array as="points">
              <mxPoint x="163" y="2587" />
            </Array>
          </mxGeometry>
        </mxCell>
        <mxCell id="2qPS91hhKTg15ooCyAV6-91" value="No" style="curved=1;startArrow=none;endArrow=block;exitX=1;exitY=0.92;entryX=0.5;entryY=0;rounded=0;" edge="1" parent="1" source="2qPS91hhKTg15ooCyAV6-68" target="2qPS91hhKTg15ooCyAV6-70">
          <mxGeometry relative="1" as="geometry">
            <Array as="points">
              <mxPoint x="401" y="2587" />
            </Array>
          </mxGeometry>
        </mxCell>
      </root>
    </mxGraphModel>
  </diagram>
</mxfile>
